<svg xmlns="http://www.w3.org/2000/svg" width="60" height="52" fill="none" viewBox="0 0 60 52"><path fill="#002147" stroke="#000" d="M10.2696 44.8453C10.2991 47.4253 8.24601 49.5349 5.69095 49.5641C3.1359 49.5933 1.03518 47.5311 1.00572 44.951C0.976268 42.371 3.02936 40.2614 5.58441 40.2322C8.13947 40.203 10.2402 42.2652 10.2696 44.8453Z"/><path fill="#002147" stroke="#000" d="M19.6417 45.7151C22.1954 38.3045 13.4135 31.6896 8.7967 32.3688L8.83525 25.7206C17.5509 23.6024 31.1483 37.3688 25.9015 47.0276L19.6417 45.7151Z"/><path fill="#002147" stroke="#000" d="M40.5935 44.6981C38.9621 31.5585 22.071 13.8781 15.131 14.6742L15.0236 5.16939C32.2409 4.75944 53.7407 31.681 49.5901 47.6836L40.5935 44.6981Z"/></svg>