<?xml version="1.0" standalone="no"?>
<!DOCTYPE svg PUBLIC "-//W3C//DTD SVG 20010904//EN"
        "http://www.w3.org/TR/2001/REC-SVG-20010904/DTD/svg10.dtd">
<svg version="1.0" xmlns="http://www.w3.org/2000/svg"
     width="300.000000pt" height="298.000000pt"
     viewBox="0 0 300.000000 298.000000"
     preserveAspectRatio="xMidYMid meet">
    <metadata>
        Created by potrace 1.10, written by Peter Selinger 2001-2011
    </metadata>
    <g transform="translate(0.000000,298.000000) scale(0.100000,-0.100000)"
       fill="#ffffff" stroke="none">
        <path d="M580 2620 c-19 -19 -20 -34 -20 -244 0 -279 -10 -262 150 -275 281
-24 522 -104 727 -243 399 -269 641 -687 670 -1157 9 -157 -2 -151 270 -151
276 0 263 -6 263 130 0 187 -52 442 -136 665 -93 246 -258 499 -453 694 -98
98 -232 211 -250 211 -5 0 -11 4 -13 9 -1 5 -48 37 -102 72 -289 181 -621 282
-994 304 -83 4 -94 3 -112 -15z m340 -127 c267 -42 512 -137 740 -288 431
-286 719 -708 824 -1210 14 -66 28 -166 32 -222 l7 -103 -145 0 -145 0 -7 77
c-46 506 -330 966 -766 1239 -119 75 -221 120 -385 170 -86 26 -296 64 -357
64 l-38 0 0 151 0 150 73 -6 c39 -4 115 -13 167 -22z"/>
        <path d="M577 1686 c-15 -15 -17 -41 -17 -195 0 -157 2 -180 18 -193 9 -9 55
-20 103 -26 144 -18 270 -72 374 -159 108 -89 198 -256 216 -395 16 -124 26
-155 52 -162 12 -3 94 -6 182 -6 206 0 205 0 204 113 -1 183 -61 367 -178 547
-53 81 -188 227 -260 280 -167 122 -371 197 -566 207 -96 5 -113 3 -128 -11z
m312 -136 c156 -43 304 -133 427 -261 141 -146 222 -301 260 -495 25 -131 29
-124 -79 -124 l-94 0 -13 73 c-44 249 -202 458 -436 575 -63 32 -202 72 -248
72 l-26 0 0 98 0 98 66 -8 c37 -4 101 -17 143 -28z"/>
        <path d="M567 869 c-129 -31 -206 -128 -207 -260 0 -149 111 -259 262 -259
100 0 182 51 227 142 41 81 43 161 5 236 -53 107 -177 167 -287 141z m122
-130 c54 -31 74 -63 75 -125 0 -58 -17 -90 -68 -128 -38 -29 -114 -29 -153 0
-97 72 -95 195 3 251 49 28 96 29 143 2z"/>
    </g>
</svg>
